<?xml version="1.0" encoding="UTF-8"?>
<svg id="Camada_2" data-name="Camada 2" xmlns="http://www.w3.org/2000/svg" viewBox="0 0 879.17 162.5">
  <defs>
    <style>
      .cls-1 {
        fill: #fc0073;
        stroke-width: 0px;
      }
    </style>
  </defs>
  <g id="Camada_1-2" data-name="Camada 1">
    <g>
      <path class="cls-1" d="M39.29,106c.38,6.62,0,16.74-1.15,30.35-.26,5.98-2.39,10.59-6.39,13.84-4.01,3.25-8.81,4.61-14.41,4.1-5.47-.51-9.86-2.7-13.17-6.59-3.31-3.88-4.64-8.75-4.01-14.6L9.51,26.21c.51-5.98,2.64-10.59,6.39-13.84,3.75-3.25,8.62-4.61,14.6-4.1l33.41,2.86c15.14,1.4,26.85,5.79,35.12,13.17,8.78,7.89,13.17,18.83,13.17,32.83,0,2.04-.07,4.14-.19,6.3-.89,9.93-4.65,18.07-11.26,24.43-5.98,5.85-13.68,9.74-23.1,11.64l24.24,30.92c3.05,3.95,4.39,7.95,4.01,12.03-.38,5.09-2.55,9.45-6.49,13.08-3.95,3.63-8.66,5.18-14.13,4.68-6.11-.51-10.82-3.18-14.12-8.02l-31.88-46.19ZM60.86,47.01l-14.89-1.34-2.1,24.05,14.89,1.34c8.65.76,13.3-2.93,13.93-11.07.76-7.89-3.18-12.22-11.83-12.98Z"/>
      <path class="cls-1" d="M161.45,158.68c-15.91.76-29.27-4.33-40.09-15.27-10.44-10.56-16.1-23.73-16.99-39.51-.76-15.52,3.56-29.21,12.98-41.04,9.8-12.34,22.46-18.96,37.99-19.85,15.65-.76,28.95,4.52,39.89,15.84,10.56,10.69,16.29,23.8,17.18,39.32.76,15.91-3.44,29.59-12.6,41.04-9.67,12.09-22.46,18.58-38.37,19.47ZM157.25,77.75c-5.22.26-9.26,2.71-12.12,7.35-2.86,4.65-4.1,10.28-3.72,16.89.38,6.36,2.22,11.68,5.54,15.94,3.31,4.27,7.51,6.27,12.6,6.01,5.22-.25,9.26-2.67,12.12-7.25s4.1-10.12,3.72-16.61c-.38-6.49-2.2-11.9-5.44-16.23-3.25-4.32-7.48-6.36-12.69-6.11Z"/>
      <path class="cls-1" d="M230.55,157.35c-5.47-.38-9.77-2.58-12.89-6.59-3.12-4.01-4.49-8.94-4.1-14.79l8.21-117.2c.38-5.73,2.42-10.37,6.11-13.94,3.69-3.56,8.27-5.15,13.74-4.77,5.47.38,9.76,2.58,12.88,6.59,3.12,4.01,4.49,8.94,4.1,14.79l-8.21,117.2c-.38,5.73-2.42,10.37-6.11,13.94-3.69,3.56-8.27,5.15-13.74,4.77Z"/>
      <path class="cls-1" d="M350.04,101.8l-49.44,17.18c3.31,3.31,7.57,4.96,12.79,4.96,2.93,0,5.98-.57,9.16-1.72,4.33-1.53,9.03-5.09,14.13-10.69,5.09-5.6,8.97-8.91,11.64-9.93,1.53-.51,3.05-.76,4.58-.76,4.45,0,8.37,1.59,11.74,4.77,3.37,3.18,5.06,6.94,5.06,11.26,0,7-4.33,14.44-12.98,22.33-7.76,7.25-16.29,12.47-25.58,15.65-6.62,2.29-13.24,3.44-19.85,3.44-11.83,0-22.43-3.56-31.78-10.69-9.35-7.12-16.13-16.8-20.33-29.01-2.29-6.49-3.44-13.23-3.44-20.23,0-11.71,2.99-22.21,8.97-31.5,6.49-9.93,15.33-16.8,26.53-20.62,5.6-1.91,11.26-2.86,16.99-2.86,11.71,0,22.59,3.76,32.64,11.26,9.54,7,16.03,15.59,19.47,25.77.89,2.55,1.34,4.96,1.34,7.25,0,6.75-3.88,11.45-11.64,14.13ZM301.94,76.79c-7.38,2.55-11.14,7.89-11.26,16.03l29.97-10.31c-3.44-4.45-7.7-6.68-12.79-6.68-1.91,0-3.88.32-5.92.95Z"/>
      <path class="cls-1" d="M434.03,162.12l-62.23-14.51c-8.52-1.91-12.79-6.55-12.79-13.93,0-4.83,1.97-9.03,5.92-12.6l48.68-43.33-21.95-4.96c-3.95-1.02-7.19-2.96-9.74-5.82-2.55-2.86-3.82-6.27-3.82-10.21,0-1.4.19-2.8.57-4.2,2.03-8.78,7.44-13.17,16.22-13.17,1.4,0,2.8.19,4.2.57l60.89,14.13c7.25,1.66,10.88,5.79,10.88,12.41,0,1.15-.13,2.36-.38,3.63-.89,3.69-2.99,7-6.3,9.93l-48.87,43.14,26.34,6.11c3.94.89,7.16,2.77,9.64,5.63s3.72,6.33,3.72,10.4c0,1.4-.13,2.8-.38,4.2-2.04,8.65-7.45,12.98-16.23,12.98-1.4,0-2.86-.13-4.39-.38Z"/>
      <path class="cls-1" d="M556.39,101.8l-49.44,17.18c3.31,3.31,7.57,4.96,12.79,4.96,2.93,0,5.98-.57,9.16-1.72,4.33-1.53,9.03-5.09,14.13-10.69,5.09-5.6,8.97-8.91,11.64-9.93,1.53-.51,3.05-.76,4.58-.76,4.45,0,8.37,1.59,11.74,4.77,3.37,3.18,5.06,6.94,5.06,11.26,0,7-4.33,14.44-12.98,22.33-7.76,7.25-16.29,12.47-25.58,15.65-6.62,2.29-13.24,3.44-19.85,3.44-11.83,0-22.43-3.56-31.78-10.69-9.35-7.12-16.13-16.8-20.33-29.01-2.29-6.49-3.44-13.23-3.44-20.23,0-11.71,2.99-22.21,8.97-31.5,6.49-9.93,15.33-16.8,26.53-20.62,5.6-1.91,11.26-2.86,16.99-2.86,11.71,0,22.59,3.76,32.64,11.26,9.54,7,16.03,15.59,19.47,25.77.89,2.55,1.34,4.96,1.34,7.25,0,6.75-3.88,11.45-11.64,14.13ZM508.28,76.79c-7.38,2.55-11.14,7.89-11.26,16.03l29.97-10.31c-3.44-4.45-7.7-6.68-12.79-6.68-1.91,0-3.88.32-5.92.95Z"/>
      <path class="cls-1" d="M590.17,43.39c-5.47.38-10.31-1.4-14.51-5.34-4.2-3.94-6.49-8.65-6.87-14.13-.25-5.22,1.56-9.93,5.44-14.13,3.88-4.2,8.5-6.42,13.84-6.68,5.34-.38,10.15,1.31,14.41,5.06,4.26,3.75,6.52,8.3,6.78,13.65.25,5.6-1.46,10.53-5.15,14.79-3.69,4.27-8.34,6.52-13.93,6.78ZM596.09,157.35c-5.47.38-10.02-1.24-13.65-4.87-3.63-3.63-5.57-8.3-5.82-14.03l-3.82-73.3c-.38-5.73,1.05-10.56,4.29-14.51,3.25-3.94,7.6-6.11,13.08-6.49,5.47-.25,10.02,1.43,13.65,5.06,3.62,3.63,5.56,8.3,5.82,14.03l4.01,73.3c.25,5.73-1.24,10.56-4.49,14.51-3.24,3.94-7.61,6.04-13.08,6.3Z"/>
      <path class="cls-1" d="M656.22,51.4c4.07-4.45,9.99-6.42,17.75-5.92,4.83.38,8.84,2.29,12.03,5.73,3.44,3.95,4.96,8.91,4.58,14.89-.38,5.6-3.5,9.8-9.35,12.6-5.47,1.91-10.95,3.82-16.42,5.73-5.85,2.55-8.97,6.24-9.35,11.07l-2.86,42c-.51,5.73-2.61,10.37-6.3,13.93-3.69,3.56-8.27,5.15-13.74,4.77-5.34-.38-9.61-2.58-12.79-6.59-3.18-4.01-4.58-8.88-4.2-14.6l5.15-74.64c.51-5.85,2.93-10.37,7.25-13.55,3.82-2.8,8.14-4.01,12.98-3.63,7.51.51,12.6,3.25,15.27,8.21Z"/>
      <path class="cls-1" d="M736.96,158.68c-15.91.76-29.27-4.33-40.09-15.27-10.44-10.56-16.1-23.73-16.99-39.51-.76-15.52,3.56-29.21,12.98-41.04,9.8-12.34,22.46-18.96,37.99-19.85,15.65-.76,28.95,4.52,39.9,15.84,10.56,10.69,16.29,23.8,17.18,39.32.76,15.91-3.44,29.59-12.6,41.04-9.67,12.09-22.46,18.58-38.37,19.47ZM732.76,77.75c-5.22.26-9.26,2.71-12.12,7.35-2.86,4.65-4.1,10.28-3.72,16.89.38,6.36,2.22,11.68,5.54,15.94,3.31,4.27,7.51,6.27,12.6,6.01,5.22-.25,9.26-2.67,12.12-7.25s4.1-10.12,3.72-16.61c-.38-6.49-2.2-11.9-5.44-16.23-3.25-4.32-7.48-6.36-12.69-6.11Z"/>
      <path class="cls-1" d="M843.67,157.35c-3.95.89-8.4,1.33-13.36,1.33-8.15,0-15.4-1.34-21.76-4.01-8.66-3.44-12.98-8.72-12.98-15.84,0-3.69.95-7.12,2.86-10.31,2.29-3.82,5.54-6.17,9.74-7.06,1.65-.38,3.31-.57,4.96-.57,2.54,0,6.01.64,10.4,1.91,4.39,1.27,7.79,1.91,10.21,1.91,1.4,0,2.8-.19,4.2-.57,4.07-.89,5.85-2.35,5.34-4.39-.26-1.02-4.71-2.1-13.36-3.25-10.82-1.27-19.15-3.31-25.01-6.11-9.54-4.45-15.4-11.45-17.56-21-.76-2.93-1.15-5.79-1.15-8.59,0-11.45,4.9-20.81,14.7-28.06,8.91-6.62,19.28-9.93,31.11-9.93,8.02,0,14.89,1.4,20.62,4.2,7.63,3.56,11.45,8.91,11.45,16.03,0,4.46-1.46,8.34-4.39,11.64-2.93,3.31-6.49,4.96-10.69,4.96-1.91,0-5.09-.44-9.54-1.34-4.46-.89-7.76-1.34-9.93-1.34-2.93,0-5.09.51-6.49,1.52-.89.64-1.21,1.52-.95,2.67.25,1.14,4.77,2.22,13.55,3.24,10.82,1.4,19.15,3.43,25.01,6.09,9.54,4.57,15.4,11.55,17.56,20.95.64,2.67.96,5.33.96,8,0,9.01-3.22,16.95-9.64,23.8-6.43,6.86-15.05,11.55-25.87,14.09Z"/>
    </g>
  </g>
</svg>